<?xml version="1.0" encoding="utf-8"?>
<!-- Generator: Adobe Illustrator 21.1.0, SVG Export Plug-In . SVG Version: 6.00 Build 0)  -->
<svg version="1.1" id="Calque_1" xmlns="http://www.w3.org/2000/svg" xmlns:xlink="http://www.w3.org/1999/xlink" x="0px" y="0px"
	 viewBox="0 0 432 432" style="enable-background:new 0 0 432 432;" xml:space="preserve">
<style type="text/css">
	.st0{fill:#6E3C3F;}
	.st1{fill:#E3635C;}
	.st2{fill:#343434;}
	.st3{fill:#B1C369;}
	.st4{fill:#A490C4;}
	.st5{fill:#A2C1DB;}
	.st6{fill:#AFB67B;}
	.st7{fill:#4F4747;}
	.st8{fill:#AA6555;}
	.st9{fill:#93C6E3;}
	.st10{fill:#9C3A47;}
	.st11{fill:#52B5C3;}
	.st12{fill:#4B6C2A;}
	.st13{fill:#F4A38D;}
	.st14{fill:#6A8E2D;}
	.st15{fill:#EE7A9F;}
	.st16{fill:#F7DA6A;}
	.st17{fill:#E2991A;}
	.st18{fill:#A7B7BE;}
	.st19{fill:#E8D8CA;}
	.st20{fill:#A1A499;}
	.st21{fill:#C42725;}
	.st22{fill:#DBDC50;}
	.st23{fill:#020203;}
	.st24{fill:#92AA3C;}
	.st25{fill:#DFB87F;}
	.st26{fill:#7E4E1C;}
	.st27{fill:#BBCC53;}
	.st28{fill:#BA5C78;}
	.st29{fill:#85924F;}
	.st30{fill:#7C1142;}
	.st31{fill:#3B322E;}
	.st32{fill:#3B6C51;}
	.st33{fill:#C1292E;}
	.st34{fill:#CDCCCC;}
	.st35{fill:#886649;}
	.st36{fill:#F9B03D;}
	.st37{fill:#7D8C5B;}
	.st38{fill:#0D341E;}
	.st39{fill:#4D8F53;}
	.st40{fill:#1B1B1B;}
	.st41{fill:#F39323;}
	.st42{fill:#E7E6E6;}
	.st43{fill:#9A908B;}
	.st44{fill:#548981;}
	.st45{fill:#89525A;}
	.st46{fill:#AB9AB1;}
	.st47{fill:#5E676E;}
	.st48{fill:#DDDBCA;}
	.st49{fill:#56463E;}
	.st50{fill:#457885;}
	.st51{fill:#FFFFFF;}
	.st52{fill:#E69678;}
	.st53{fill:#A5AB9B;}
	.st54{fill:#855354;}
	.st55{fill:#DE8F6E;}
	.st56{fill:#C19D63;}
	.st57{fill:#837F62;}
	.st58{fill:#7D8769;}
	.st59{fill:#39466A;}
	.st60{fill:#4E4D4D;}
	.st61{fill:#673E44;}
	.st62{fill:#CEB283;}
	.st63{fill:#8890A4;}
	.st64{fill:#99B8B3;}
	.st65{fill:#A0747A;}
	.st66{fill:#BB839E;}
	.st67{fill:#E5DA9B;}
	.st68{fill:#BA9BC9;}
	.st69{fill:#8CACB5;}
	.st70{fill:#746458;}
	.st71{fill:#34354B;}
	.st72{fill:#6A8188;}
	.st73{fill:#B4B4B4;}
	.st74{fill:#97CB9E;}
	.st75{fill:#EE7896;}
	.st76{fill:#785F63;}
	.st77{fill:#E4A87C;}
	.st78{fill:#98D5E8;}
	.st79{fill:#CB6083;}
	.st80{fill:#9A9999;}
	.st81{fill:#C49A6C;}
	.st82{fill:#EC96AB;}
	.st83{fill:#ED87AB;}
	.st84{fill:#E2B471;}
	.st85{fill:#59B465;}
	.st86{fill:#4C996E;}
	.st87{fill:#A84F6B;}
	.st88{fill:#6BC4CD;}
	.st89{fill:#D6809C;}
	.st90{fill:#9DD0B3;}
	.st91{fill:#F3AA9A;}
	.st92{fill:#F29292;}
	.st93{fill:#BBBBBB;}
	.st94{fill:#5B5242;}
	.st95{fill:#8CCDC6;}
	.st96{fill:#EAC892;}
	.st97{fill:#F4B0CC;}
	.st98{fill:#7A6350;}
	.st99{fill:#9FC64B;}
	.st100{fill:#A68C6D;}
	.st101{fill:#F1D3D4;}
	.st102{fill:#BE8BBE;}
	.st103{fill:#F49523;}
	.st104{fill:#789835;}
	.st105{fill:#8FA369;}
	.st106{fill:#B17081;}
	.st107{fill:#E1B63D;}
	.st108{fill:#B05274;}
	.st109{fill:#CA9256;}
	.st110{fill:#A9A9AA;}
	.st111{fill:#BE202E;}
	.st112{fill-rule:evenodd;clip-rule:evenodd;fill:#A9A9AA;}
	.st113{fill:#89657B;}
	.st114{fill:#7F95B7;}
	.st115{fill:#9F9EC6;}
	.st116{fill:#7F6178;}
	.st117{fill:#6D8999;}
	.st118{fill:#A0C07E;}
	.st119{fill:#AA779F;}
	.st120{fill:#FBC063;}
	.st121{fill:#80A0C2;}
	.st122{fill:#CFAC75;}
	.st123{fill:#CD94C2;}
	.st124{fill:#AAB6DE;}
	.st125{fill:#CCAE99;}
	.st126{fill:#86B69F;}
	.st127{fill:#555D57;}
	.st128{fill:#86C1BB;}
	.st129{fill:#CA856C;}
	.st130{fill:#A4AA6D;}
	.st131{fill:#EAB978;}
	.st132{fill:#C091A7;}
	.st133{fill:#7E9DAD;}
	.st134{fill:#E5B1C8;}
	.st135{fill:#B9AEA3;}
	.st136{fill:#627F99;}
	.st137{fill:#E6A9AB;}
	.st138{fill:#913E41;}
	.st139{fill:#B46269;}
	.st140{fill:#C69C6C;}
	.st141{fill:#ED6D78;}
	.st142{fill:#C09047;}
	.st143{fill:#AE6C7B;}
	.st144{fill:#918FB2;}
	.st145{fill:#67816D;}
	.st146{fill:#B3B1A2;}
	.st147{fill:#A23A43;}
	.st148{fill:#6A907C;}
	.st149{fill:#B09294;}
	.st150{fill:#7B484D;}
	.st151{fill:#B78B5E;}
	.st152{fill:#DB7D82;}
	.st153{fill:#781611;}
	.st154{fill:#D38F8F;}
	.st155{fill:#965656;}
	.st156{fill:#9AA4B4;}
	.st157{fill:#754D24;}
	.st158{fill:#C8B7A7;}
	.st159{fill:#B4363B;}
	.st160{fill:#C77272;}
	.st161{fill:#91AF82;}
	.st162{fill:#C69462;}
	.st163{fill:#ED6C5B;}
	.st164{fill:#F3C186;}
	.st165{fill:#F3957D;}
	.st166{fill:#D1BBBC;}
</style>
<g>
	<g>
		<path class="st117" d="M146.5,268c-0.9-0.2-1.8-0.3-2.6-0.5c-4-0.9-6-3-6.5-7.1c-0.4-3.3-0.4-6.5-0.2-9.8c0.4-5,3.7-7.5,7.8-8.3
			c1.8-0.3,3.6-0.3,5.4-0.3c0.1,0,0.2-0.1,0.2-0.1c2-2.9,5.1-4.3,8.4-5.1c5.2-1.3,10.5-2.2,15.9-2.3c0.4,0,0.8-0.1,1.3-0.1
			c0.1,0,0.2-0.1,0.4-0.1c-0.1-1.3-0.2-2.6-0.2-3.9c-0.1-1.6,0.1-3.3,0.5-4.9c0.7-2.7,2.4-4.8,5.1-5.6c1.8-0.6,3.7-1,5.6-1.3
			c2.4-0.4,4.8-0.5,7.2-0.2c5.2,0.5,8.3,3.4,9.1,8.5c0.3,1.7,0.3,3.3,0.5,5c0,0.4,0.1,0.8,0.1,1.3c0.6,0,1.2,0.1,1.8,0.1
			c7.8,0.6,15.5,0.4,23.3,0.3c10.7-0.2,21.3-0.3,32-0.3c3.4,0,6.8,0.1,10.1,0.9c5,1.2,8.7,4.1,10.9,8.7c1.4,2.9,2,6,2.5,9.2
			c1,6.5,1.1,13,1,19.6c-0.1,6-0.3,12-0.5,18c-0.2,7.3-0.5,14.5-0.7,21.8c-0.2,5.9-0.3,11.7-0.5,17.6c-0.2,5.2-0.3,10.5-0.5,15.7
			c-0.1,2.9-0.3,5.8-0.9,8.6c-1.1,5-4.1,8.3-8.8,10.2c-3.2,1.3-6.5,1.8-9.9,2.3c-9.1,1.2-18.3,1-27.5,1c-7.6,0-15.3,0.1-22.9,0.1
			c-6.2,0-12.3,0.1-18.5,0.2c-6.3,0-12.7,0-19,0c-3.6,0-7.2-0.5-10.7-1.2c-5.1-1.1-8.9-3.9-11.5-8.4c-2.1-3.6-3.3-7.5-4.1-11.6
			c-0.7-4-1.2-8-1.3-12c-0.3-7.7-0.6-15.4-0.8-23c-0.4-13.9-0.7-27.9-1-41.8C146.5,268.8,146.5,268.4,146.5,268z M176.6,361
			c0.7,0,1.2,0,1.7,0c14.5-0.1,29-0.3,43.6-0.4c9.7-0.1,19.5,0,29.2,0c5,0,10-0.4,14.9-1.3c2.1-0.4,4.2-0.8,6.2-1.7
			c2.3-1,3.8-2.8,4.3-5.2c0.1-0.5,0.3-1.1,0.3-1.6c0.3-3.3,0.5-6.6,0.7-9.9c0.1-2.8,0.1-5.5,0.1-8.3c0.2-6.5,0.4-13,0.6-19.5
			c0.2-5.3,0.3-10.7,0.5-16c0.3-7.7,0.6-15.4,0.8-23.1c0.1-6,0.2-12.1-0.5-18.1c-0.4-3.2-0.9-6.3-1.9-9.4c-1.2-3.8-3.8-6-7.6-6.9
			c-0.7-0.2-1.4-0.3-2.1-0.4c-3.3-0.2-6.5-0.4-9.8-0.5c-12.9-0.2-25.8,0.2-38.7,0.4c-10.5,0.2-21,0.1-31.5,0.3
			c-4.5,0.1-9.1,0.2-13.6,0.4c-0.3,0-0.5,0.1-0.8,0.2c0.3,4.7,0.1,9.3,0.1,13.9c0,2.3-0.2,4.5-0.2,6.8c0,7.3,0,14.6,0.1,21.9
			c0.2,11.2,0.5,22.3,0.8,33.5c0.2,5.7,0.4,11.5,0.7,17.2c0.3,6.5,0.7,12.9,1.1,19.3C176,355.3,176.3,358.1,176.6,361z M167.3,240.5
			c-0.2,0-0.4-0.1-0.5,0c-3,0.6-6,1.2-8.8,2.5c-2,0.9-3.2,2.4-3.6,4.5c-1.1,5.2-1.7,10.5-1.6,15.7c0.1,10.7,0.3,21.3,0.6,32
			c0.1,6,0.3,11.9,0.5,17.9c0.2,7.5,0.5,15,0.8,22.5c0.2,3.9,0.6,7.7,1.5,11.5c0.8,3.2,2,6.2,3.9,9c2.5,3.6,6.2,4.1,10.1,4.6
			C167.3,320.5,166.1,280.6,167.3,240.5z M198.7,233.1c-0.2-2.2-0.5-4.4-0.7-6.6c-0.2-1.6-1.2-2.5-2.7-2.9c-0.3-0.1-0.6-0.2-1-0.2
			c-3.4-0.2-6.9-0.2-10.2,0.8c-1.9,0.5-3,1.8-3.2,3.6c-0.3,2-0.1,4.1,0.3,6.1C187,233.6,192.8,233.4,198.7,233.1z M148.4,246.7
			c-0.9,0-1.7,0.1-2.5,0.1c-1.1,0.1-1.9,0.8-2.1,1.9c-0.3,1.4-0.7,2.8-0.7,4.2c-0.1,2.2,0.1,4.3,0.2,6.5c0.1,1.8,0.4,2.1,2.2,2.5
			c0.3,0.1,0.6,0.1,1,0.2C146.6,256.9,147.2,251.8,148.4,246.7z"/>
		<path class="st117" d="M225.5,355.5c-9.3-0.1-17.4-2-24.9-6.7c-9.4-5.9-15.3-14.3-17.5-25.2c-2-9.6-0.3-18.7,3.9-27.4
			c1.6-3.3,3.6-6.3,6.3-8.9c1.8-1.8,3.6-3.5,5.6-5.1c4.9-4.1,10.6-6.6,16.9-7.6c13.6-2.2,26,0.8,37,9.2c6.8,5.2,10.8,12.2,12.9,20.4
			c2.7,10.8,1.9,21.4-2.9,31.5c-1.4,2.9-3.1,5.5-5.1,7.9c-3.6,4.2-8.1,7-13.3,8.7C237.9,354.4,231.5,355.3,225.5,355.5z
			 M260.8,315.1c-0.1-2-0.3-5-0.9-7.9c-2.2-10.1-7.7-17.6-16.9-22.4c-7.6-3.9-15.6-5.5-24.1-4.5c-4.8,0.6-9.4,1.9-13.5,4.8
			c-2.6,1.8-5.1,3.8-7.4,6.1c-2.1,2.2-3.9,4.6-5.3,7.3c-3.7,7.5-5.3,15.4-3.6,23.7c1.8,9.2,6.8,16.3,14.7,21.3
			c5.9,3.7,12.3,5.5,19.2,5.7c6.4,0.2,12.6-0.8,18.7-2.7c6.4-2,11.1-6,14.4-11.9C259.4,328.9,260.8,322.7,260.8,315.1z"/>
		<path class="st117" d="M195.4,270.2c0.1,3.8-0.1,7.3-0.9,10.7c-0.3,1.4-0.8,2.8-1.7,4c-2,2.8-5.3,3.7-8.5,2.2
			c-2.2-1-3.6-2.7-4.5-4.9c-0.8-2.1-1.1-4.2-1.4-6.4c-0.6-5.6-0.4-11.1,0.9-16.6c0.5-2.1,1.4-4.1,2.8-5.9c2.5-3,5.9-3.2,8.7-0.5
			c1.1,1.1,1.8,2.4,2.4,3.8c1,2.6,1.4,5.3,1.7,8C195.1,266.6,195.2,268.5,195.4,270.2z M182.7,269.6c0.1,2,0.2,4.1,0.5,6.1
			c0.2,1.6,0.6,3.1,1,4.6c0.2,0.8,0.7,1.5,1.4,2c1.2,0.8,2,0.6,2.7-0.6c0.2-0.4,0.5-0.8,0.5-1.3c0.3-1.6,0.7-3.2,0.7-4.8
			c0.2-4.6-0.3-9.2-1.1-13.8c-0.3-1.5-0.8-3-1.3-4.4c-0.4-1-0.9-1.1-1.8-0.5c-0.3,0.2-0.6,0.5-0.8,0.8c-0.4,0.9-0.8,1.7-1,2.7
			C183,263.4,182.7,266.5,182.7,269.6z"/>
		<path class="st117" d="M164.5,261.3c0,2.7-1.8,4.5-4.5,4.9c-2.6,0.3-4.5-0.9-5.1-3.3c-0.3-1-0.5-2.1-0.5-3.1c0-2,1.1-3.5,2.9-4.3
			c1.9-0.8,3.6-0.4,5.1,1C163.9,257.8,164.4,259.6,164.5,261.3z M157.9,260.3c0.1,0.6,0.2,0.9,0.3,1.3c0.3,0.8,0.7,1,1.4,0.8
			c0.7-0.3,0.9-0.7,0.6-1.5c-0.1-0.3-0.3-0.7-0.5-1c-0.3-0.4-0.7-0.7-1.1-0.5C158.2,259.5,158,260,157.9,260.3z"/>
		<path class="st117" d="M165,275.1c0,2.7-2,4.5-5,4.5c-2.9,0-4.9-2.2-4.9-5.2c0-2.7,2.2-4.9,4.8-4.9
			C162.9,269.4,165,271.7,165,275.1z M160,276c1.3,0,1.7-0.6,1.2-1.9c0,0,0-0.1,0-0.1c-0.4-0.7-1-1-1.8-0.8c-0.6,0.2-1,0.7-0.9,1.3
			C158.6,275.5,159.1,276,160,276z"/>
		<path class="st117" d="M224.9,338.8c-3.3-0.1-6.2-0.6-9.1-1.6c-5.4-1.9-8.7-5.8-10.4-11.1c-0.4-1.2-0.6-2.5-0.8-3.8
			c-0.7-5.2-0.4-10.4,1.9-15.3c3.5-7.6,11.8-12.7,20-12.1c4.5,0.3,8.3,2.4,11.2,5.8c3.4,3.9,5.4,8.6,6.1,13.7
			c0.7,5.1-0.1,9.9-2.4,14.4c-3.1,6.2-8.4,9.3-15.2,9.9C225.7,338.8,225.2,338.8,224.9,338.8z M210.6,319.9c0.2,1.1,0.3,2.7,0.7,4.2
			c1,3.5,3,6.1,6.6,7.3c2.3,0.8,4.7,1.3,7.2,1.2c5.4-0.1,9.6-3.1,11.5-8.1c1.2-3.3,1.5-6.7,0.9-10.1c-0.6-3.5-2-6.7-4.4-9.5
			c-2.5-2.9-5.6-4.3-9.5-3.7c-5.3,0.7-8.8,3.8-11,8.5C211.2,312.7,210.9,316,210.6,319.9z"/>
	</g>
	<g>
		<path class="st118" d="M274,116.9c-0.2,0.4-0.3,0.6-0.5,0.8c-2.6,5.2-5.2,10.4-7.9,15.5c-0.8,1.4-1.7,2.8-2.6,4.1
			c-0.7,1-1.6,1.7-2.7,2.3c-1.2,0.7-2.5,0.8-3.8,0.3c-1.1-0.4-2.2-1.1-3.1-1.9c-1.8-1.6-3.1-3.4-4.3-5.4c-2.7-4.9-4.7-10.1-5.7-15.6
			c-0.1-0.5-0.2-0.9-0.5-1.4c0,0.1-0.1,0.2-0.1,0.4c-1,4.9-2.4,9.8-4.5,14.4c-1,2.2-2.2,4.2-3.8,5.9c-1.1,1.2-2.3,2-3.9,2.4
			c-1.3,0.3-2.6,0.1-3.8-0.5c-1.1-0.5-2-1.3-2.8-2.1c-2-2.1-3.2-4.5-4.1-7.2c-1.2-3.6-1.9-7.3-2.2-11.2c-0.1,0.2-0.3,0.4-0.4,0.6
			c-2.4,4.3-4.8,8.7-7.7,12.8c-0.8,1.1-1.5,2.3-2.4,3.4c-0.6,0.9-1.3,1.7-2.1,2.4c-2.4,2.3-5.3,3-8.5,2.1c-4.1-1.1-7-3.7-9.2-7.2
			c-1.2-2-1.7-3.3-2.5-6.7c-0.1,0.3-0.2,0.5-0.3,0.7c-0.5,2.7-1,5.3-1.5,8c-0.8,3.9-1.7,7.7-3.3,11.3c-0.5,1.1-1.1,2.2-1.8,3.2
			c-1.9,2.7-4.6,2.8-6.9,0.4c-1.5-1.7-2.5-3.8-3.2-5.9c-1-2.8-1.4-5.6-1.7-8.5c-0.4-4.8-0.2-9.6,0.3-14.3c0.4-4,1-8,1.4-12
			c0.2-1.6,0.3-3.3,0.2-4.9c-0.2-2.5-0.3-2.1-2.3-1.8c-3,0.4-5.9,1.5-8.7,2.6c-1.2,0.5-2.5,0.9-3.7,1.4c-0.1,1.1-0.1,2.1-0.2,3.2
			c-0.2,4.9-1,9.8-2.3,14.5c-1.1,4.2-2.6,8.2-4.9,11.9c-1.4,2.3-3.1,4.4-5.1,6.2c-2.9,2.5-6.3,3.7-10,4.1c-5.2,0.5-9.8-1.1-14.1-3.8
			c-4.9-3-8.5-7.3-11.1-12.4c-2.3-4.3-3.6-8.9-4.5-13.7c-0.7-3.9-0.9-7.8-0.7-11.8c0.5-8.2,3.2-15.6,8.5-21.9
			c2.7-3.2,6.1-5.6,10.1-6.8c1.2-0.4,2.4-0.8,3.7-1c4.3-0.5,7.9,0.9,10.7,4.3c1,1.2,1.7,2.6,2,4.1c0.1,0.6,0.2,1.2,0.1,1.7
			c0,0.6-0.3,1.1-0.9,1.3c-0.6,0.2-1-0.1-1.4-0.6c-0.4-0.4-0.7-0.9-1.1-1.4c-0.8-0.9-1.7-1.8-2.6-2.6c-1.3-1.1-2.8-1.2-4.3-0.3
			c-1.5,0.9-2.8,2-3.9,3.4c-3,3.8-5,8.1-5.8,12.9c-0.5,2.5-0.8,5-0.7,7.5c0.3,8.5,1.8,16.8,5.8,24.4c1.7,3.2,4.3,5.7,7.5,7.3
			c3.3,1.7,6.6,1.5,9.7-0.5c1.7-1.1,3.1-2.6,4.3-4.2c2.2-3,3.7-6.3,4.8-9.7c1.5-4.6,2.6-9.4,3.1-14.3c0-0.1,0-0.2,0-0.4
			c0-0.1,0-0.1-0.1-0.2c-1,0.2-2,0.4-3.1,0.6c-2.1,0.3-4.2,0.1-6.2-0.5c-4.2-1.2-6.9-4.6-7.2-9c-0.3-4.3,1.2-8.1,4.3-11.1
			c1.6-1.6,3.6-2.5,6-2.5c2.8,0,5,1.3,6.3,3.8c0.9,1.7,1.5,3.5,1.9,5.4c0.4,2,0.8,4,1.1,6.1c0.7,0.2,1.6,0,2.4-0.2
			c2-0.4,3.9-1,5.8-1.5c2.2-0.5,4.5-0.9,6.8-0.8c1.7,0,3.3,0.4,4.8,1.1c2.1,1,3.5,2.7,4.4,4.8c0.7,1.6,1,3.3,1.1,5
			c0.2,3.4,0,6.7-0.3,10.1c-0.2,2.6-0.5,5.3-0.8,7.9c-0.4,3.2-0.8,6.4-1.2,9.6c-0.3,2.1-0.5,4.2-0.3,6.4c0,0.6,0.1,1.2,0.6,1.7
			c0.7-0.5,1-1.1,1.3-1.8c0.5-1.5,1.1-3,1.4-4.5c0.9-3.6,1.6-7.2,2.4-10.8c0.7-3,1.3-6,1.9-9.1c0.2-0.8,0.1-1.6,0.1-2.4
			c-0.1-4.6,0.8-9,2.9-13.1c1.4-2.8,3.1-5.3,5.5-7.2c1.6-1.3,3.4-2.1,5.5-2.4c4.1-0.6,7.5,1.9,7.9,6c0.3,3.8-0.7,7.2-3.1,10.2
			c-1.6,2-3.5,3.6-5.7,4.8c-0.4,0.2-0.6,0.4-0.6,0.9c0.4,3.6,0.9,7.1,2.4,10.4c0.5,1.1,1,2.2,1.7,3.3c0.4,0.6,0.8,1.2,1.4,1.6
			c1,0.9,1.9,0.9,3.1,0.2c0.5-0.3,1-0.7,1.4-1.2c1-1.1,2-2.2,2.9-3.4c1.2-1.7,2.3-3.4,3.4-5.1c1.9-3.2,3.8-6.5,5.7-9.8
			c0.3-0.5,0.4-1,0.6-1.5c0.6-1.9,1-3.8,1.7-5.6c1.1-2.8,2.9-5.1,5.4-6.9c2.7-1.9,5.6-2.4,8.7-1.4c1.8,0.6,3.3,1.4,4.7,2.7
			c0.2,0.2,0.4,0.4,0.7,0.6c0.2-0.4,0.3-0.8,0.5-1.1c1-2,2.5-3.4,4.7-3.9c2.1-0.5,4,0.1,5.5,1.7c0.8,0.9,1.3,1.9,1.7,3
			c0.9,2.4,1.4,4.8,1.7,7.3c0.5,4.6,0.9,9.2,1.3,13.7c0.4,4.1,0.8,8.2,2.2,12.2c0.3,0.8,0.6,1.5,0.9,2.2c0.7,1.3,1.3,1.4,2.4,0.4
			c0.7-0.6,1.3-1.4,1.7-2.2c1.1-1.9,2.2-3.7,3.1-5.7c2.4-4.7,4.5-9.4,6.5-14.2c0.9-2.1,1.6-4.1,1.6-6.4c0-1.9,0.2-3.9,0.3-5.8
			c0.1-2.6,0.3-5.1,0.5-7.7c0-0.8,0.1-1.7,0.1-2.5c0-1.3,0.1-2.5,0.1-3.9c-1.1,0.3-2.1,0.5-3,0.8c-5.3,1.2-10.5,2.4-15.9,3.1
			c-8.8,1.2-17.5,0.7-26.1-1.6c-3.2-0.8-6.1-2.2-8.5-4.5c-2.1-1.9-3.6-4.2-4.1-7c-0.3-1.6-0.3-3.2,0.8-4.6c1.2-1.5,2.9-1.6,4.2-0.1
			c0.3,0.3,0.5,0.6,0.7,1c0.2,0.4,0.5,0.9,0.6,1.3c1.7,4.7,5.2,7.6,9.6,9.6c2.3,1,4.7,1.5,7.2,1.6c3.6,0.2,7.2,0.1,10.8-0.4
			c3.5-0.5,6.9-1.2,10.3-2.1c4.5-1.2,8.9-2.5,13.4-3.7c0.7-0.2,0.7-0.6,0.7-1.1c0.2-2.5,0.6-4.9,1.3-7.3c0.3-1,0.7-1.9,1.1-2.8
			c0.2-0.5,0.6-1,0.9-1.4c1.4-1.7,3.5-1.9,5.3-0.5c0.9,0.7,1.5,1.7,2,2.7c0.9,1.9,1.4,4,1.8,6c0.1,0.4,0.2,0.8,0.3,1.3
			c1-0.2,1.9-0.3,2.8-0.4c4.3-0.6,8.5-0.8,12.8-0.1c2.6,0.4,5.2,1.2,7.3,2.9c0.4,0.3,0.8,0.7,1.1,1.1c0.9,1.3,0.3,2.8-1.2,3.2
			c-0.7,0.2-1.5,0.2-2.2,0.1c-1.5-0.2-3-0.5-4.6-0.7c-4.4-0.6-8.7-0.8-13.1-0.2c-0.8,0.1-1.6,0.2-2.4,0.3c0,0.3-0.1,0.5-0.1,0.8
			c0.1,5-0.3,9.9-0.5,14.9c-0.2,3-0.3,6-0.4,9c-0.2,6.9-0.4,13.9-0.6,20.8c-0.1,2.7,0.1,5.3,0.2,8c0.1,1.3,0.3,2.6,0.6,4
			c0.1-0.3,0.2-0.5,0.4-0.8c1.4-3.7,2.4-7.5,3.1-11.4c0.9-4.8,1.7-9.7,2.6-14.5c0.4-2.1,0.8-4.2,1.3-6.2c1-3.5,2.6-6.7,5-9.5
			c1.6-1.9,3.6-3.4,6.1-4c4.9-1.1,9.6,2.1,10.1,6.9c0.3,2.7-0.7,5.1-2.8,6.8c-2,1.6-4.2,2.6-6.7,3.2c-0.4,0.1-0.8,0.2-1.2,0.3
			c0,0,0,0-0.1,0.1c0,0.1-0.1,0.2-0.1,0.3c0.2,4.3,0.8,8.6,2.4,12.7c0.6,1.4,1.4,2.8,2.3,4c0.6,0.8,1.4,1.5,2.3,2
			c1,0.5,2,0.5,2.9,0.1c1.2-0.5,2.2-1.4,3.1-2.4c1.8-1.9,3.4-4,4.8-6.2c1.5-2.3,2.9-4.7,4.3-7c0.2-0.3,0.4-0.6,0.6-0.9
			c0.5-0.5,1.1-0.6,1.7-0.4c0.6,0.2,1,0.7,1.1,1.4c0,0.5,0,1-0.1,1.5c-0.3,1-0.6,1.9-1,2.9c-1.3,2.9-2.8,5.6-4.4,8.2
			c-1.7,2.6-3.7,4.9-6.1,6.9c-1.9,1.6-4.1,2.8-6.6,3.2c-3.3,0.5-6.3-0.3-8.9-2.4c-2.2-1.8-4-3.9-5.4-6.4c-1.1-1.9-1.9-4-2.6-6.1
			c0-0.2-0.1-0.3-0.3-0.5c0,0.1-0.1,0.3-0.1,0.4c-0.9,5.7-2,11.4-3.9,16.9c-0.7,1.9-1.5,3.8-2.7,5.4c-0.6,0.8-1.3,1.4-2,2
			c-1.8,1.3-3.9,1.3-5.7,0c-1.2-0.8-2.1-1.9-2.9-3.1c-1.3-2.2-2.2-4.5-2.6-7c-0.5-2.9-0.8-5.7-1.1-8.6
			C274.4,123.6,274.3,120.4,274,116.9z M239.4,101.2c-0.5-0.3-1-0.6-1.6-0.9c-0.7-0.3-1.4-0.7-2.1-0.9c-1.5-0.5-2.7-0.1-3.7,1.2
			c-0.7,0.9-1.1,1.9-1.4,3c-0.5,1.7-0.7,3.4-0.8,5.2c-0.2,4,0,8,0.6,12c0.3,1.7,0.7,3.5,1.1,5.2c0.2,0.8,0.6,1.6,1,2.3
			c0.8,1.3,1.6,1.4,2.6,0.1c0.5-0.6,0.9-1.2,1.2-1.9c0.8-1.6,1.3-3.3,1.7-5c0.8-3.7,1-7.5,1.1-11.2
			C239.2,107.4,239.3,104.4,239.4,101.2z M196.5,110.3c0.2-0.1,0.3-0.1,0.4-0.1c1.8-1.2,3.4-2.8,4.6-4.7c1-1.6,1.5-3.3,1.3-5.2
			c-0.1-0.8-0.3-1.7-0.6-2.5c-0.5-1.1-1.4-1.3-2.3-0.6c-0.4,0.3-0.8,0.8-1.1,1.2c-0.4,0.7-0.8,1.5-1.1,2.3
			C196.6,103.9,196.5,107,196.5,110.3z M150.5,99c-0.1-0.6-0.1-1.1-0.2-1.5c-0.3-2.1-0.7-4.2-1.5-6.2c-0.3-0.9-0.8-1.8-1.5-2.5
			c-1.4-1.3-2.8-1-3.7,0.6c-0.9,1.9-0.6,4.4,0.9,6C146.1,97.1,148.1,98.2,150.5,99z M306,106.8c1.8-0.7,3.3-1.2,4.6-2.4
			c0.5-0.5,1-1.1,1.4-1.7c0.5-0.7,0.8-1.6,0.6-2.4c-0.2-1.2-0.4-1.6-1.9-1.2c-0.9,0.2-1.7,0.8-2.3,1.6c-1,1.2-1.6,2.5-2,4
			C306.2,105.3,306.1,105.9,306,106.8z"/>
		<g>
			<path class="st2" d="M139.1,162.8c-1.1,7.3-1.6,14.6-1.6,21.9c0,7.3,0.5,14.3,1.6,21.2h-8.5c0.7-4.8,1.2-9.7,1.4-14.7
				c0.3-5,0.2-10.3-0.1-15.9c-1,1.8-1.9,3.5-2.7,5c-0.8,1.5-1.6,3-2.3,4.5c-0.8,1.5-1.6,3.1-2.4,4.9c-0.9,1.7-1.9,3.7-3,6
				c-0.9-1.8-1.8-3.5-2.6-5.1c-0.8-1.6-1.6-3.2-2.4-4.8c-0.8-1.6-1.7-3.2-2.6-4.9c-0.9-1.7-1.9-3.5-2.9-5.5
				c-0.3,5.7-0.4,11.1-0.1,16.1c0.2,5,0.7,9.8,1.4,14.4h-8.5c1.1-7.3,1.6-14.6,1.6-21.9c0-7.2-0.5-14.3-1.6-21.3h8.6
				c0.9,2.6,1.8,5.1,2.8,7.7c1,2.5,2,4.8,2.9,6.7c0.9,2,2,4.1,3.3,6.5c0.2-0.6,0.7-1.5,1.3-2.6c0.6-1.1,1.3-2.5,2.1-4.2
				c0.8-1.7,1.7-3.7,2.7-6.1c1-2.3,1.9-5,2.9-8.1H139.1z"/>
			<path class="st2" d="M146.7,162.9c1.7,0.2,3.5,0.3,5.5,0.4c1.9,0.1,3.8,0.1,5.6,0.1c1.8,0,3.5-0.1,5-0.2c1.6-0.1,2.8-0.2,3.8-0.4
				v7.1c-2.2-0.4-4.3-0.7-6.3-0.9s-3.9-0.3-5.8-0.4c-0.2,1.6-0.3,3.1-0.4,4.5c-0.1,1.5-0.2,2.9-0.3,4.5c-0.1,1.5-0.1,3.1-0.2,4.7
				c0,1.6,0,3.4,0,5.2c1.2-0.1,2.4-0.2,3.7-0.4c1.3-0.2,2.6-0.5,4-0.8v7.1c-1.4-0.3-2.7-0.6-3.9-0.8c-1.3-0.2-2.5-0.3-3.6-0.4
				c0,0.6,0.1,1.1,0.1,1.6c0,0.5,0.1,1.1,0.2,1.7c0.1,0.6,0.1,1.3,0.2,2c0.1,0.7,0.2,1.6,0.3,2.6c1.8-0.1,3.8-0.2,5.8-0.4
				c2-0.2,4.1-0.5,6.3-0.9v7.1c-2.1-0.2-4-0.4-5.8-0.6c-1.7-0.1-3.4-0.2-5-0.2c-1.6,0-3.1,0.1-4.6,0.2c-1.5,0.1-3.1,0.3-4.8,0.5
				c1.1-7.1,1.6-14.3,1.7-21.5C148.2,177.2,147.7,170,146.7,162.9z"/>
			<path class="st2" d="M206.8,162.8c-1.1,7.3-1.6,14.6-1.6,21.9c0,7.3,0.5,14.3,1.6,21.2h-8.5c0.7-4.8,1.2-9.7,1.4-14.7
				c0.3-5,0.2-10.3-0.1-15.9c-1,1.8-1.9,3.5-2.7,5c-0.8,1.5-1.6,3-2.3,4.5c-0.8,1.5-1.6,3.1-2.4,4.9c-0.9,1.7-1.9,3.7-3,6
				c-0.9-1.8-1.8-3.5-2.6-5.1c-0.8-1.6-1.6-3.2-2.4-4.8c-0.8-1.6-1.7-3.2-2.6-4.9c-0.9-1.7-1.9-3.5-2.9-5.5
				c-0.3,5.7-0.4,11.1-0.1,16.1c0.2,5,0.7,9.8,1.4,14.4h-8.5c1.1-7.3,1.6-14.6,1.6-21.9c0-7.2-0.5-14.3-1.6-21.3h8.6
				c0.9,2.6,1.8,5.1,2.8,7.7c1,2.5,2,4.8,2.9,6.7c0.9,2,2,4.1,3.3,6.5c0.2-0.6,0.7-1.5,1.3-2.6c0.6-1.1,1.3-2.5,2.1-4.2
				c0.8-1.7,1.7-3.7,2.7-6.1c1-2.3,1.9-5,2.9-8.1H206.8z"/>
			<path class="st2" d="M211.4,184.3c0-4.8,0.7-8.8,2-12c1.4-3.2,3.1-5.6,5.1-7.2c2.1-1.6,4.3-2.4,6.6-2.4c2.4,0,4.6,0.8,6.6,2.4
				c2.1,1.6,3.8,4,5.1,7.2c1.4,3.2,2,7.2,2,12c0,1.5-0.1,3.1-0.2,4.8c-0.1,1.7-0.4,3.4-0.8,5.1c-0.4,1.7-1,3.3-1.7,4.8
				c-0.7,1.5-1.7,2.8-2.8,3.9c-1.1,1.1-2.4,1.9-3.8,2.4c-1.4,0.5-2.9,0.8-4.4,0.8s-3-0.3-4.4-0.8c-1.4-0.5-2.7-1.3-3.8-2.4
				c-1.2-1.1-2.1-2.4-2.8-3.9c-0.7-1.5-1.3-3.1-1.7-4.8c-0.4-1.7-0.7-3.4-0.8-5.1C211.5,187.4,211.4,185.8,211.4,184.3z
				 M225.2,199.5c1.8,0,3.3-0.6,4.5-1.7c1.1-1.1,2-2.4,2.6-3.9c0.6-1.5,1-3.1,1.2-4.7c0.2-1.6,0.3-3,0.3-4.1c0-3.5-0.3-6.3-0.9-8.4
				c-0.6-2.1-1.4-3.7-2.3-4.8c-0.9-1.1-1.8-1.8-2.8-2.1c-1-0.3-1.8-0.5-2.6-0.5c-0.7,0-1.5,0.2-2.6,0.5c-1,0.3-1.9,1-2.8,2.2
				c-0.9,1.1-1.6,2.7-2.3,4.8c-0.6,2.1-0.9,4.9-0.9,8.4c0,0.7,0,1.6,0.1,2.6c0.1,1,0.2,2,0.5,3.1c0.2,1.1,0.5,2.1,0.9,3.1
				c0.4,1,0.9,1.9,1.5,2.8c0.6,0.8,1.4,1.5,2.3,2C222.9,199.3,224,199.5,225.2,199.5z"/>
			<path class="st2" d="M259.1,187.3c1.6,2.4,2.9,5.2,4.1,8.4c1.2,3.2,2,6.6,2.5,10.2h-8.5c0.5-3,0.4-5.8-0.2-8.6
				c-0.6-2.8-1.5-5.4-3-7.9c-0.6,0.2-1.2,0.3-1.7,0.4c-0.6,0.1-1.2,0.2-1.8,0.3c0.1,2.5,0.2,5.1,0.5,7.6c0.2,2.5,0.6,5.3,1,8.2h-8.5
				c1.1-7.2,1.6-14.4,1.6-21.6c0-7.2-0.5-14.3-1.6-21.3c1.4,0,2.8-0.1,4.2-0.2c1.4-0.1,2.9,0,4.3,0.1c1.5,0.2,2.9,0.5,4.4,1.1
				c1.5,0.6,3,1.5,4.5,2.8c1.6,1.4,2.8,3,3.6,4.9c0.8,1.8,1.1,3.7,0.9,5.6c-0.2,1.9-0.8,3.7-1.9,5.5
				C262.6,184.6,261,186.1,259.1,187.3z M251.4,168.2c-0.3,2.6-0.6,5.3-0.7,8c-0.1,2.7-0.2,5.7-0.2,8.8c2.1-0.3,3.9-0.9,5.4-1.7
				c1.4-0.9,2.5-1.9,3.3-3c0.8-1.1,1.2-2.3,1.3-3.6c0.1-1.3-0.2-2.5-0.9-3.7c-0.6-1.1-1.6-2.2-3-3
				C255.2,169.1,253.5,168.5,251.4,168.2z"/>
			<path class="st2" d="M278.5,162.8c-1,6.9-1.6,14-1.6,21.2c0,7.2,0.5,14.6,1.6,21.9H270c1.1-7.3,1.6-14.5,1.6-21.8
				c0-7.2-0.5-14.4-1.6-21.4H278.5z"/>
			<path class="st2" d="M286.1,162.9c1.7,0.2,3.5,0.3,5.5,0.4c1.9,0.1,3.8,0.1,5.6,0.1c1.8,0,3.5-0.1,5-0.2c1.6-0.1,2.8-0.2,3.8-0.4
				v7.1c-2.2-0.4-4.3-0.7-6.3-0.9s-3.9-0.3-5.8-0.4c-0.2,1.6-0.3,3.1-0.4,4.5c-0.1,1.5-0.2,2.9-0.3,4.5c-0.1,1.5-0.1,3.1-0.2,4.7
				c0,1.6,0,3.4,0,5.2c1.2-0.1,2.4-0.2,3.7-0.4c1.3-0.2,2.6-0.5,4-0.8v7.1c-1.4-0.3-2.7-0.6-3.9-0.8c-1.3-0.2-2.5-0.3-3.6-0.4
				c0,0.6,0.1,1.1,0.1,1.6c0,0.5,0.1,1.1,0.2,1.7c0.1,0.6,0.1,1.3,0.2,2c0.1,0.7,0.2,1.6,0.3,2.6c1.8-0.1,3.8-0.2,5.8-0.4
				c2-0.2,4.1-0.5,6.3-0.9v7.1c-2.1-0.2-4-0.4-5.8-0.6c-1.7-0.1-3.4-0.2-5-0.2c-1.6,0-3.1,0.1-4.6,0.2c-1.5,0.1-3.1,0.3-4.8,0.5
				c1.1-7.1,1.6-14.3,1.7-21.5C287.7,177.2,287.2,170,286.1,162.9z"/>
			<path class="st2" d="M316.8,193.1c-0.3,1.8-0.1,3.4,0.6,4.6c0.7,1.2,1.5,2,2.5,2.4c1,0.4,1.9,0.5,2.8,0.2c0.9-0.3,1.4-1,1.6-2.1
				c0.1-1.1-0.3-2.6-1.3-4.5c-1-1.9-2.9-4.3-5.7-7c-2.8-2.8-4.7-5.4-5.9-7.8c-1.2-2.4-1.8-4.6-1.9-6.5c-0.1-1.9,0.3-3.6,1.2-5
				c0.8-1.4,1.9-2.5,3.3-3.3c1.4-0.8,2.8-1.2,4.5-1.3c1.6-0.1,3.2,0.2,4.7,0.9c1.5,0.7,2.8,1.8,4,3.3c1.2,1.5,1.9,3.5,2.3,5.9
				l-7.9,0.4c0.2-1.4,0-2.5-0.6-3.3c-0.6-0.8-1.3-1.2-2.1-1.4c-0.8-0.1-1.6,0-2.3,0.6c-0.7,0.5-1.1,1.4-1.2,2.5
				c-0.1,1.2,0.4,2.7,1.3,4.5c0.9,1.8,2.6,4,5,6.5c2.8,2.8,4.8,5.4,6,7.8c1.2,2.4,1.9,4.6,1.9,6.6c0.1,1.9-0.3,3.6-1.2,5
				c-0.9,1.4-2,2.4-3.4,3.1c-1.4,0.7-2.9,1-4.6,1c-1.7,0-3.3-0.5-4.9-1.4c-1.6-0.9-3-2.3-4.2-4.1c-1.2-1.8-2.1-4.2-2.5-7.1
				L316.8,193.1z"/>
		</g>
	</g>
</g>
</svg>
